:SAMPLES-PER-SECOND 30
:FULLY-SPECIFIED
:DEGREES
429
root  -19.3487 38.7756 -5.74991 -18.3391 81.6709 -19.0356
RightUpLeg  -8.65038 -3.92786 1.53061
RightLeg  25.5178 2.61533 1.0816
RightFoot  -15.2647 -0.165977 -1.79989
RightToes  2.91037e-010 0 -3.6325e-017
Spine  8.96091 -2.33072 10.2899
Spine1  9.71989 -1.38294 1.92557
HEad  -6.20881 6.46153 -5.08392
LeftShoulder1  -0.0790581 3.71336 -31.6575
LeftArm  0.287881 7.72047 -43.3455
LeftForeArm  23.1582 -30.8275 -5.44337
LeftHand  -0.060032 0.68436 1.39559
RightShoulder  -0.568244 -5.14202 27.9098
RightArm  19.313 -7.59103 44.9697
RightForeArm  -2.94576 16.0127 6.27874
RightHand  -0.785069 4.52982 -9.45626
LeftUpLeg  -11.1249 6.76811 9.25638
LeftLeg  55.2392 -2.31542 -3.11341
LeftFoot  -1.68949 0.566964 -6.58208
LeftToes  -7.53974e-010 3.3384e-011 -1.25048e-011
430
root  -18.3376 39.0066 -5.44695 -9.23267 81.4066 -9.92859
RightUpLeg  -5.66705 -4.41751 0.304565
RightLeg  22.7852 3.74223 1.19898
RightFoot  -15.5391 -0.173554 -1.73862
RightToes  2.91037e-010 0 -3.6325e-017
Spine  8.94637 -1.83026 10.3888
Spine1  9.26328 -0.651602 0.41402
HEad  -6.23316 6.09575 -5.39877
LeftShoulder1  -0.0158422 3.54491 -31.6308
LeftArm  1.57711 8.7255 -43.0817
LeftForeArm  22.6349 -29.7132 -5.20862
LeftHand  -0.0311364 0.963982 0.694313
RightShoulder  -0.548103 -5.10511 27.4417
RightArm  19.8078 -6.44127 45.1358
RightForeArm  -5.53858 19.0192 5.53696
RightHand  -0.763991 3.97859 -9.68473
LeftUpLeg  -15.1365 6.7877 6.27095
LeftLeg  52.9693 0.156647 0.657019
LeftFoot  -2.92814 0.421995 -5.50286
LeftToes  -7.53974e-010 3.3384e-011 -1.25048e-011
431
root  -17.3043 39.1742 -5.11837 -1.3055 81.1647 -2.03659
RightUpLeg  -2.69848 -5.24444 -0.797382
RightLeg  20.0968 4.98172 1.02749
RightFoot  -15.9106 -0.174836 -1.69528
RightToes  2.91037e-010 0 -3.6325e-017
Spine  8.88393 -1.29503 10.2673
Spine1  8.87856 0.087684 -1.12112
HEad  -6.87725 5.22155 -5.17648
LeftShoulder1  0.0635122 3.33332 -31.0852
LeftArm  2.997 9.89793 -42.9721
LeftForeArm  21.9025 -28.4184 -4.95028
LeftHand  -0.0303043 0.933627 0.668093
RightShoulder  -0.575753 -5.17756 27.6392
RightArm  19.3781 -5.33662 44.4115
RightForeArm  -4.96794 22.8727 5.19665
RightHand  -0.6296 3.08813 -8.8372
LeftUpLeg  -18.3627 6.91894 3.4628
LeftLeg  48.0328 2.49251 3.38598
LeftFoot  -4.08829 0.349449 -5.13021
LeftToes  -7.53974e-010 3.3384e-011 -1.25048e-011
432
root  -16.238 39.2722 -4.81249 4.16412 80.9444 3.49603
RightUpLeg  0.499986 -6.39124 -1.76837
RightLeg  17.3351 6.42508 0.859497
RightFoot  -16.309 -0.180698 -1.61996
RightToes  2.91037e-010 0 -3.6325e-017
Spine  8.87951 -0.832396 9.84957
Spine1  8.71304 0.538833 -1.87504
HEad  -8.45527 4.86653 -5.67679
LeftShoulder1  0.0356385 3.4087 -31.3242
LeftArm  4.61623 10.7263 -42.4311
LeftForeArm  20.5676 -26.6619 -4.61751
LeftHand  -0.0259143 0.884377 0.548422
RightShoulder  -0.558682 -5.1464 27.2367
RightArm  17.9711 -4.39038 43.893
RightForeArm  -4.83575 26.8737 6.02281
RightHand  -0.791463 4.59601 -9.4719
LeftUpLeg  -20.5693 7.22462 1.09258
LeftLeg  40.7995 3.80426 3.9039
LeftFoot  -4.83461 0.319053 -5.1055
LeftToes  -7.53974e-010 3.3384e-011 -1.25048e-011
433
root  -15.1513 39.2734 -4.51672 7.39945 81.0363 6.67154
RightUpLeg  3.5744 -7.49335 -2.52319
RightLeg  14.8239 7.38475 0.760148
RightFoot  -16.7488 -0.199895 -1.83449
RightToes  2.91037e-010 0 -3.6325e-017
Spine  8.89778 -0.501736 9.9901
Spine1  8.494 1.01379 -3.02987
HEad  -10.1565 4.03427 -5.44263
LeftShoulder1  0.0905249 3.26171 -31.2786
LeftArm  5.23761 11.444 -42.0996
LeftForeArm  18.358 -24.3116 -4.28651
LeftHand  -0.0206054 1.86978 0.355526
RightShoulder  -0.53223 -5.07357 27.1055
RightArm  16.1551 -3.76037 43.1453
RightForeArm  -3.27868 31.3352 7.05926
RightHand  -0.770125 4.66813 -9.15594
LeftUpLeg  -22.0886 7.47483 -0.886902
LeftLeg  31.7387 3.39742 2.67546
LeftFoot  -4.85674 0.331342 -5.32501
LeftToes  -7.53974e-010 3.3384e-011 -1.25048e-011
434
root  -14.0253 39.2179 -4.21765 9.27782 80.7328 8.29544
RightUpLeg  6.50438 -7.94493 -3.01763
RightLeg  12.1978 8.0665 0.510491
RightFoot  -17.1992 -0.207631 -1.78834
RightToes  2.91037e-010 0 -3.6325e-017
Spine  8.60904 0.0149969 9.83414
Spine1  8.71953 1.62693 -3.91828
HEad  -12.6912 3.41425 -5.37021
LeftShoulder1  0.0961471 3.24602 -31.1812
LeftArm  4.39095 11.8541 -42.0688
LeftForeArm  17.5351 -21.0493 -4.36297
LeftHand  -0.0217144 2.43381 0.34211
RightShoulder  -0.569729 -5.17732 27.2821
RightArm  14.8789 -2.9433 42.5716
RightForeArm  -1.87775 35.3831 8.08582
RightHand  -0.747098 4.75663 -8.82384
LeftUpLeg  -22.7438 7.66094 -2.27644
LeftLeg  21.0943 1.37096 0.860793
LeftFoot  -3.90577 0.404372 -5.86925
LeftToes  -7.53974e-010 3.3384e-011 -1.25048e-011
435
root  -12.8442 39.0865 -3.93018 10.377 80.5559 9.19266
RightUpLeg  9.55281 -8.12558 -3.41726
RightLeg  9.74734 8.39697 0.226849
RightFoot  -17.844 -0.205487 -1.48887
RightToes  2.91037e-010 0 -3.6325e-017
Spine  8.36663 0.289135 9.49838
Spine1  9.02184 2.01977 -4.70146
HEad  -15.8971 3.70379 -5.53485
LeftShoulder1  0.090149 3.26311 -31.3228
LeftArm  1.08842 12.5209 -41.4506
LeftForeArm  18.3903 -17.6731 -5.43744
LeftHand  -0.0208421 2.62035 0.272004
RightShoulder  -0.563352 -5.16505 27.1425
RightArm  14.0573 -2.08026 42.8672
RightForeArm  -1.04142 38.3449 8.92813
RightHand  -0.788215 5.22812 -8.90952
LeftUpLeg  -22.7859 5.09337 -2.27162
LeftLeg  10.9261 1.24458 -0.115801
LeftFoot  -4.03953 0.439008 -6.49857
LeftToes  -7.53974e-010 3.3384e-011 -1.25048e-011
436
root  -11.6025 38.8469 -3.63638 11.1863 80.3422 10.107
RightUpLeg  12.3898 -8.35978 -4.0198
RightLeg  8.64947 8.92736 0.218383
RightFoot  -18.9471 -0.217669 -1.34508
RightToes  2.91037e-010 0 -3.6325e-017
Spine  8.47935 0.538238 8.55539
Spine1  9.42595 2.29536 -4.89934
HEad  -19.6443 3.57234 -5.19247
LeftShoulder1  0.115339 3.19405 -31.1693
LeftArm  -2.12466 13.1724 -40.9031
LeftForeArm  19.8386 -14.287 -6.47397
LeftHand  -0.0175182 3.51973 -0.0989712
RightShoulder  -0.5422 -5.10869 26.9985
RightArm  13.3191 -1.04464 43.7145
RightForeArm  -0.2675 40.327 9.52457
RightHand  -0.805725 4.63716 -9.58622
LeftUpLeg  -23.0253 1.25017 -1.30138
LeftLeg  4.19259 4.05451 -0.849667
LeftFoot  -4.02889 0.412483 -6.09
LeftToes  -7.53974e-010 3.3384e-011 -1.25048e-011
437
root  -10.2455 38.4964 -3.38789 10.7118 80.3617 10.226
RightUpLeg  15.4124 -8.58656 -4.68766
RightLeg  8.87186 9.63453 0.356993
RightFoot  -20.4078 -0.190153 -0.670949
RightToes  2.91037e-010 0 -3.6325e-017
Spine  8.92292 0.566959 8.19278
Spine1  9.77634 2.56511 -5.63571
HEad  -22.7167 3.23694 -4.53748
LeftShoulder1  0.21819 2.91085 -30.6854
LeftArm  -5.16249 13.881 -40.5105
LeftForeArm  22.3784 -10.9836 -7.00701
LeftHand  -0.0164553 3.66867 -0.223089
RightShoulder  -0.5313 -5.07285 27.0621
RightArm  12.8525 -0.487355 44.786
RightForeArm  0.00157369 41.3896 9.87011
RightHand  -0.858977 5.10721 -9.78144
LeftUpLeg  -23.8013 1.11905 -1.64856
LeftLeg  3.26663 4.06437 -1.2894
LeftFoot  -4.34144 0.468007 -7.13194
LeftToes  -7.53974e-010 3.3384e-011 -1.25048e-011
438
root  -8.80037 38.1373 -3.18852 11.983 80.3188 11.9321
RightUpLeg  17.8247 -8.42421 -5.63954
RightLeg  10.1142 10.253 0.593423
RightFoot  -21.7417 -0.0572421 0.988793
RightToes  2.91037e-010 0 -3.6325e-017
Spine  9.33343 0.656113 7.73544
Spine1  9.96548 2.95276 -6.61952
HEad  -25.5293 3.08497 -3.87503
LeftShoulder1  0.260432 2.79068 -30.3936
LeftArm  -6.62834 14.5342 -39.9654
LeftForeArm  25.6981 -8.79716 -7.02435
LeftHand  -0.0138849 3.84178 -0.743842
RightShoulder  -0.514865 -5.02771 26.9721
RightArm  12.208 -0.590138 46.2218
RightForeArm  0.256536 41.6066 9.93
RightHand  -0.850631 5.54497 -9.31287
LeftUpLeg  -25.1947 1.06833 -2.89556
LeftLeg  7.19035 3.91001 -0.628885
LeftFoot  -2.48233 0.343851 -4.61829
LeftToes  -7.53974e-010 3.3384e-011 -1.25048e-011
439
root  -7.24113 37.7686 -3.00549 14.267 80.1925 14.6541
RightUpLeg  19.5868 -6.82445 -6.38063
RightLeg  12.855 9.71985 1.18037
RightFoot  -22.6244 0.182632 3.36566
RightToes  2.91037e-010 0 -3.6325e-017
Spine  9.59409 0.99623 6.49176
Spine1  10.2296 3.28377 -6.73432
HEad  -27.7534 2.54379 -3.3877
LeftShoulder1  0.239581 2.8555 -30.8968
LeftArm  -6.81544 15.0412 -38.8867
LeftForeArm  27.4564 -7.73361 -7.01236
LeftHand  -0.0138128 4.59421 -1.78474
RightShoulder  -0.475735 -4.90638 27.0521
RightArm  12.0177 -1.06859 47.231
RightForeArm  -0.0363812 41.1719 9.79845
RightHand  -0.926501 5.67973 -10.0038
LeftUpLeg  -26.7164 1.80521 -4.92569
LeftLeg  14.2617 2.50709 0.524555
LeftFoot  1.55563 -0.0728786 0.699673
LeftToes  -7.53974e-010 3.3384e-011 -1.25048e-011
440
root  -5.61435 37.4044 -2.82204 17.9435 79.8965 19.0605
RightUpLeg  20.3326 -3.62752 -7.0051
RightLeg  18.1726 8.19351 2.52412
RightFoot  -22.6686 0.562676 7.19537
RightToes  2.91037e-010 0 -3.6325e-017
Spine  10.6011 1.41754 5.09271
Spine1  9.70968 3.66698 -7.09607
HEad  -29.7 1.95676 -2.88071
LeftShoulder1  0.179204 3.02587 -31.4032
LeftArm  -6.5079 15.5324 -37.6958
LeftForeArm  27.6542 -7.07064 -7.12
LeftHand  -0.00312418 3.95192 -1.25121
RightShoulder  -0.446197 -4.81161 27.1935
RightArm  12.6129 -1.87891 48.118
RightForeArm  0.208261 39.3299 9.1706
RightHand  -0.837075 5.5482 -9.17345
LeftUpLeg  -27.5238 1.34078 -6.09913
LeftLeg  21.3607 2.2779 1.3773
LeftFoot  3.35888 -0.259191 1.87645
LeftToes  -7.53974e-010 3.3384e-011 -1.25048e-011
